# xmcd CD database file
#
# Track frame offsets:
#	150
#	58194
#	112163
#	144904
#	164231
#
# Disc length: 3267 seconds
#
# Revision: 0
# Processed by: cddbd v1.5.2PL0 Copyright (c) Steve Scherf et al.
# Submitted via: CDex 1.70beta2
#
DISCID=4b0cc105
DTITLE=David Liebman and Mike Murley Quartet - Day and Night
DYEAR=2007
DGENRE=Jazz
TTITLE0=Day and Night
TTITLE1=That's What You Want
TTITLE2=GNID
TTITLE3=Introduction by Liebman
TTITLE4=India
EXTD=YEAR: 2007
EXTT0=
EXTT1=
EXTT2=
EXTT3=
EXTT4=
PLAYORDER=
